<svg width="25" height="25" viewBox="0 0 25 25" fill="none" xmlns="http://www.w3.org/2000/svg">
<path fill-rule="evenodd" clip-rule="evenodd" d="M12.9207 7.13691C13.0457 7.01193 13.2152 6.94171 13.392 6.94171C13.5688 6.94171 13.7383 7.01193 13.8633 7.13691L18.53 11.8038C18.655 11.9288 18.7252 12.0984 18.7252 12.2752C18.7252 12.452 18.655 12.6215 18.53 12.7465L13.8633 17.4134C13.7376 17.5349 13.5692 17.6021 13.3944 17.6005C13.2196 17.599 13.0524 17.5289 12.9288 17.4053C12.8052 17.2817 12.7351 17.1145 12.7336 16.9397C12.732 16.7649 12.7992 16.5964 12.9207 16.4707L16.4493 12.9419H7.39201C7.2152 12.9419 7.04563 12.8716 6.9206 12.7466C6.79558 12.6216 6.72534 12.452 6.72534 12.2752C6.72534 12.0983 6.79558 11.9288 6.9206 11.8037C7.04563 11.6787 7.2152 11.6085 7.39201 11.6085H16.4493L12.9207 8.07963C12.7957 7.9546 12.7255 7.78505 12.7255 7.60827C12.7255 7.43148 12.7957 7.26194 12.9207 7.13691Z" fill="#9F0023"/>
</svg>
