<svg width="25" height="25" viewBox="0 0 25 25" fill="none" xmlns="http://www.w3.org/2000/svg">
<path fill-rule="evenodd" clip-rule="evenodd" d="M12.0797 7.13691C12.2047 7.26194 12.2749 7.43148 12.2749 7.60827C12.2749 7.78505 12.2047 7.9546 12.0797 8.07963L8.551 11.6085H17.6083C17.7851 11.6085 17.9547 11.6787 18.0797 11.8037C18.2048 11.9288 18.275 12.0983 18.275 12.2752C18.275 12.452 18.2048 12.6216 18.0797 12.7466C17.9547 12.8716 17.7851 12.9419 17.6083 12.9419H8.551L12.0797 16.4707C12.2011 16.5964 12.2683 16.7649 12.2668 16.9397C12.2653 17.1145 12.1952 17.2817 12.0715 17.4053C11.9479 17.5289 11.7807 17.599 11.6059 17.6005C11.4311 17.6021 11.2627 17.5349 11.137 17.4134L6.47034 12.7465C6.34536 12.6215 6.27515 12.452 6.27515 12.2752C6.27515 12.0984 6.34536 11.9288 6.47034 11.8038L11.137 7.13691C11.262 7.01193 11.4316 6.94171 11.6083 6.94171C11.7851 6.94171 11.9547 7.01193 12.0797 7.13691Z" fill="#9F0023"/>
</svg>
